<svg width="328" height="292" viewBox="0 0 328 292" fill="none" xmlns="http://www.w3.org/2000/svg">
<path d="M326.218 0C328.593 14.4227 328.593 22.8566 326.218 37.2793C308.906 41.8649 293.302 45.8844 279 49.3545V83H316V111H296V135H286V268H296V292H244V268H254V135H244V111H83.9997V135H73.9997V268H83.9997V292H31.9997V268H41.9997V135H31.9997V111H12.9997V83H48.9997V48.5361C34.6724 45.2376 19.0548 41.4834 1.781 37.2793C-0.59365 22.8567 -0.593684 14.4227 1.781 0C142.893 46.3476 188.725 46.3475 326.218 0ZM128.412 136.278C156.263 122.556 190.913 119.978 218.328 145.672L225.005 153.41L217.778 160.637C189.417 188.609 161.051 216.226 132.68 243.904C146.945 258.025 175.461 263.229 194.062 249.697C198.072 246.953 201.742 243.513 205.002 239.539C205.96 238.351 207.309 237.497 208.829 237.217C210.348 236.936 211.905 237.245 213.171 238.086C214.436 238.927 215.324 240.242 215.654 241.751C215.985 243.261 215.721 244.835 214.998 246.179C212.027 251.591 208.219 256.717 203.533 261.156C177.247 286.056 130.068 282 108.389 248.211L104.295 240.857L110.321 234.982C138.001 207.966 165.885 180.833 193.39 153.775C178.013 145.19 153.352 143.479 134.88 149.902C130.291 151.565 125.999 153.851 122.419 156.918C121.283 157.93 119.819 158.557 118.277 158.595C116.736 158.632 115.252 158.087 114.137 157.062C113.023 156.038 112.353 154.606 112.26 153.067C112.167 151.528 112.669 150.017 113.581 148.8C117.619 143.573 122.849 139.433 128.412 136.278ZM261 53.582C226.407 61.3909 199.488 65.4542 173 65.9463V83H261V53.582ZM66.9997 83H155V65.7344C129.038 64.6476 101.934 60.2094 66.9997 52.5801V83Z" fill="#EFEFEF" style="mix-blend-mode:difference"/>
</svg>
